<svg width="951" height="1107" viewBox="0 0 951 1107" fill="none" xmlns="http://www.w3.org/2000/svg">
<g filter="url(#filter0_d_103_73)">
<path d="M863.207 402.28C857.102 541.42 803.267 655.769 684.578 733.629C607.675 784.078 521.885 802.039 431.018 787.32C274.89 762.013 176.378 668.65 129.513 520.598C88.914 392.341 114.845 274.888 200.014 171.451C263.006 94.9397 345.256 49.5406 442.822 33.8765C525.316 20.6431 602.246 39.035 673.854 81.5171C783.062 146.28 845.19 241.992 862.828 367.225C863.071 369.007 863.18 370.817 863.18 372.598C863.207 382.484 863.18 392.396 863.18 402.28H863.207ZM610.566 751.453C619.506 744.27 629.878 739.867 633.579 732.253C643.979 710.917 631.068 681.317 608.701 673.052C595.358 668.11 581.259 665.086 567.32 662.008C528.503 653.446 509.947 632.299 509.758 592.571C509.649 567.915 511.648 543.175 513.89 518.572C515.133 504.879 511.405 494.374 501.924 484.544C490.121 472.337 479.098 459.292 468.62 445.923C465.108 441.44 464.351 434.824 461.11 425.776C465.405 428.775 466.269 429.125 466.755 429.745C501.06 472.796 550.627 481.735 600.652 489.27C610.862 490.808 619.641 487.054 622.587 476.036C624.396 469.257 624.829 462.127 626.098 453.917C599.842 465.151 594.169 440.9 578.584 431.123C596.573 421.86 611.701 409.896 629.69 420.51C634.2 411.219 637.901 403.144 641.98 395.286C651.055 377.811 649.408 368.52 634.362 353.56C633.417 352.613 633.498 350.696 632.931 349.32C630.015 342.379 628.799 333.494 623.694 328.983C611.997 318.612 617.994 309.511 625.313 303.083C635.039 294.521 634.175 290.309 621.343 285.582C633.364 285.879 636.604 280.749 637.929 270.486C644.114 222.764 620.426 186.277 576.747 183.064C568.832 182.469 560.323 181.065 553.381 177.527C527.261 164.267 500.06 156.732 470.644 158.028C470.158 158.028 469.646 156.813 466.458 152.762C487.203 151.789 505.436 150.952 523.965 150.088C520.049 147.522 516.268 145.011 512.512 142.526C522.291 144.768 530.8 149.359 539.444 153.68C549.411 158.649 559.081 164.618 569.59 167.967C585.418 173.044 597.708 169.047 604.569 158.946C610.755 149.845 608.377 135.018 598.788 122.973C575.315 93.4812 530.962 85.5412 499.439 106.175C490.309 112.143 483.42 113.655 472.941 108.848C463.135 104.365 451.25 102.15 440.392 102.475C358.41 104.797 299.687 178.985 299.822 260.655C316.677 246.341 332.29 233.081 347.904 219.821C340.395 241.371 323.7 254.335 307.25 267.327C288.586 282.044 275.268 299.329 272.864 324.149C269.758 356.584 291.53 375.139 322.296 364.875C329.022 362.633 334.991 358.097 341.69 355.721C359.274 349.535 377.076 343.973 394.795 338.22C399.819 336.599 406.897 336.868 409.652 333.494C419.699 321.232 428.318 307.809 437.474 294.82C436.825 294.278 436.177 293.766 435.53 293.225C409.598 306.216 383.666 319.205 357.708 332.197C389.825 303.569 434.152 291.038 458.489 248.502C465.592 288.634 441.39 312.967 422.455 338.651C430.803 343.917 437.608 348.213 444.415 352.506C443.66 354.072 442.903 355.665 442.148 357.233C435.665 356.422 429.182 355.098 422.671 354.936C417.647 354.801 408.788 354.91 408.111 356.962C403.629 371.06 390.473 373.383 380.345 379.946C354.79 396.5 347.147 432.554 379.318 449.138C378.318 446.463 377.426 444.087 376.509 441.711C366.92 416.378 374.051 397.743 398.578 386.426C401.927 384.888 409.922 385.78 410.867 387.831C418.161 403.496 429.613 411.3 448.063 408.248C444.795 427.126 431.882 415.459 423.94 419.349C425.237 459.698 428.804 500.991 414.513 540.934C399.09 584.065 368.486 630.921 346.229 642.372C368.944 617.23 383.342 590.005 391.581 559.029C395.12 545.769 392.769 538.233 380.776 531.617C364.893 522.866 364.516 502.556 379.372 491.862C384.206 488.379 389.582 485.651 396.011 481.788C381.236 479.384 370.404 481.519 362.598 493.592C353.171 508.202 359.274 519.897 368.944 531.832C357.141 532.914 349.956 527.053 345.581 518.195C334.046 494.724 351.441 479.845 363.948 463.181C327.535 465.26 310.627 483.462 321.918 507.176C295.014 509.337 276.322 498.371 268.975 476.144C261.547 453.674 268.488 442.952 305.413 419.78C259.629 418.025 231.455 393.368 240.666 361.878C247.068 385.319 260.546 400.524 284.993 402.819C298.768 404.116 309.52 398.635 313.49 389.937C280.887 387.211 264.301 374.571 259.061 347.671C253.632 319.881 258.791 294.359 275.377 270.972C279.481 265.192 282.265 257.441 282.832 250.366C287.154 195.541 306.143 148.036 351.522 114.412C389.906 85.9732 432.126 74.6303 479.559 89.7541C485.662 91.6987 494.496 89.7543 500.493 86.5944C526.803 72.7129 553.031 72.9829 579.179 85.6492C602.327 96.8571 618.858 114.52 625.612 139.798C678.553 129.59 722.448 173.935 707.835 223.737C699.894 250.878 700.057 274.131 726.095 292.659C716.479 290.174 707.052 287.338 701.245 281.152C695.086 274.591 692.358 264.814 688.036 256.306C678.176 272.16 669.182 289.526 678.796 309.132C685.523 322.825 697.381 331.44 716.775 328.929C697.057 346.511 676.798 354.046 650.272 349.968C664.239 374.49 653.784 394.691 645.005 416.216C638.578 432.015 635.551 449.758 634.147 466.907C632.067 492.645 621.29 502.584 595.844 498.128C591.874 497.426 587.686 497.427 583.878 496.238C568.698 491.512 556.948 496.804 546.169 507.419C525.587 527.701 522.318 553.925 520.887 580.527C519.104 613.853 532.123 634.135 563.512 646.126C578.88 652.015 595.195 655.445 611.08 659.954C632.472 666.005 646.031 679.399 649.948 701.654C651.461 710.269 652.489 718.937 653.811 728.2C656.864 726.716 659.349 725.797 661.536 724.365C732.551 677.779 786.574 617.283 816.828 536.802C839.68 476.01 850.943 413.676 838.491 349.373C818.88 248.124 765.83 168.129 679.473 111.09C602.679 60.3704 518.888 41.0875 428.128 59.6143C340.286 77.5471 267.353 121.569 211.44 191.868C142.046 279.1 115.926 377.461 142.289 487.029C167.005 589.736 221.541 672.081 314.544 725.609C396.848 772.979 484.692 780.945 576.207 759.123C587.767 756.37 590.523 749.888 588.254 739.518C583.797 719.046 570.966 705.489 552.355 697.171C540.714 691.958 528.746 687.528 514.89 681.912C575.612 679.939 594.25 690.446 610.512 751.562L610.566 751.453ZM628.88 158.514C634.094 159.891 637.929 160.864 641.79 161.917C672.341 170.127 684.065 193.029 672.612 222.655C669.559 230.543 665.237 237.969 662.321 245.882C652.651 272.375 641.466 298.843 661.05 326.093C662.645 328.309 659.861 333.681 659.079 337.815C666.534 338.489 675.961 339.353 687.577 340.434C664.158 327.498 654.46 309.673 660.403 287.013C663.644 274.672 669.369 262.924 674.72 251.257C679.176 241.534 685.55 232.648 689.576 222.792C697.435 203.508 693.437 185.251 679.607 170.424C666.588 156.462 650.191 150.196 628.88 158.541V158.514ZM351.874 447.975C332.075 407.627 351.387 382.646 380.02 360.744C360.706 356.638 338.178 378.811 332.075 400.228C326.185 420.834 332.02 436.741 351.874 447.975ZM303.333 495.833C298.228 475.443 305.981 460.508 320.54 448.517C315.327 437.658 307.817 442.818 301.226 445.059C289.774 448.948 282.832 456.402 282.022 469.285C281.102 484.463 291.34 489.891 303.306 495.833H303.333ZM629.095 177.095C655.702 192.246 648.894 218.551 650.759 244.586C663.671 227.787 663.915 211.449 659.456 195.676C655.729 182.47 643.951 177.068 629.07 177.068L629.095 177.095Z" fill="white"/>
</g>
<g filter="url(#filter1_d_103_73)">
<path d="M530.071 312.401C546.817 305.433 560.865 295.441 577.773 304.326C581.474 306.269 584.175 310.079 587.336 313.022C584.527 315.426 581.798 317.936 578.908 320.233C575.207 323.177 571.589 326.31 567.535 328.686C561.891 332.035 556.811 334.087 550.87 327.336C545.846 321.637 538.309 318.126 530.098 312.401H530.071Z" fill="white"/>
</g>
<g filter="url(#filter2_d_103_73)">
<path d="M592.738 291.955C575.396 278.614 556.839 274.293 536.311 284.313C551.22 271.349 572.506 270.08 588.821 280.721C591.712 282.585 593.467 286.177 595.735 288.984C594.737 289.957 593.736 290.957 592.738 291.93V291.955Z" fill="white"/>
</g>
<g filter="url(#filter3_d_103_73)">
<path d="M112.902 944.904V867.603L77.5983 928.077H73.2961L37.9924 867.603V944.904H31.5391V855.078H37.9924L75.4472 919.348L112.902 855.078H119.355V944.904H112.902ZM229.934 855.078H235.502L273.463 944.904H266.63L254.103 915.299H211.207L198.68 944.904H191.719L229.934 855.078ZM252.331 909.986L232.718 862.922L212.725 909.986H252.331ZM345.942 944.904V855.078H383.271C387.152 855.078 390.651 855.879 393.773 857.482C396.978 859.085 399.72 861.236 401.998 863.934C404.361 866.55 406.174 869.501 407.439 872.79C408.79 876.08 409.464 879.454 409.464 882.912C409.464 887.381 408.578 891.556 406.806 895.436C405.035 899.317 402.546 902.563 399.341 905.178C396.219 907.793 392.549 909.395 388.332 909.986L410.729 944.904H403.263L381.499 910.998H352.396V944.904H345.942ZM352.396 905.052H383.903C387.784 905.052 391.157 903.998 394.026 901.889C396.895 899.779 399.088 897.04 400.606 893.665C402.21 890.291 403.01 886.707 403.01 882.912C403.01 879.031 402.083 875.447 400.227 872.158C398.455 868.783 396.051 866.085 393.014 864.061C390.062 861.952 386.729 860.898 383.018 860.898H352.396V905.052ZM481.218 855.078L512.599 904.799L544.108 855.078H551.319L515.889 910.998V944.904H509.435V910.745L474.132 855.078H481.218ZM624.263 944.904V855.078H630.717V939.084H684.368V944.904H624.263ZM756.626 944.904V855.078H763.08V944.904H756.626ZM851.948 867.097V944.904H845.494V855.078H850.809L913.444 934.15V855.078H919.898V944.904H913.571L851.948 867.097Z" fill="white"/>
</g>
<g filter="url(#filter4_d_103_73)">
<path d="M265.41 1070.55C266.833 1071.5 268.469 1072.26 270.313 1072.84C272.158 1073.37 274.242 1073.63 276.561 1073.63C279.724 1073.63 282.255 1073.08 284.153 1071.97C286.105 1070.86 287.554 1069.2 288.503 1066.99C289.505 1064.78 290.164 1062.09 290.48 1058.92C290.796 1055.76 290.954 1052.15 290.954 1048.09V1019.23H293.643V1047.78C293.643 1052.05 293.46 1055.92 293.09 1059.4C292.72 1062.88 291.957 1065.88 290.796 1068.41C289.689 1070.94 287.975 1072.89 285.656 1074.26C283.388 1075.58 280.357 1076.24 276.561 1076.24C274.135 1076.24 271.921 1075.95 269.918 1075.37C267.915 1074.79 266.068 1073.92 264.382 1072.76L265.41 1070.55ZM354.27 1072.84V1075.37H317.179V1019.23H353.558V1021.76H319.947V1045.4H349.367V1047.93H319.947V1072.84H354.27ZM413.604 1021.76H392.567V1075.37H389.799V1021.76H368.763V1019.23H413.604V1021.76ZM458.999 1075.37V1019.23H482.092C484.464 1019.23 486.625 1019.73 488.577 1020.73C490.528 1021.68 492.215 1023 493.638 1024.69C495.062 1026.32 496.169 1028.17 496.96 1030.22C497.751 1032.22 498.146 1034.28 498.146 1036.39C498.146 1039.24 497.567 1041.9 496.406 1044.38C495.245 1046.85 493.638 1048.91 491.582 1050.54C489.526 1052.18 487.127 1053.13 484.385 1053.39L498.462 1075.37H495.299L481.38 1053.71H461.767V1075.37H458.999ZM461.767 1051.18H482.566C485.202 1051.18 487.469 1050.46 489.367 1049.04C491.319 1047.62 492.822 1045.77 493.875 1043.51C494.929 1041.24 495.457 1038.87 495.457 1036.39C495.457 1033.86 494.85 1031.49 493.638 1029.27C492.426 1027.01 490.791 1025.19 488.735 1023.82C486.732 1022.45 484.49 1021.76 482.013 1021.76H461.767V1051.18ZM556.157 1072.84V1075.37H519.066V1019.23H555.445V1021.76H521.834V1045.4H551.254V1047.93H521.834V1072.84H556.157ZM579.586 1024.37V1075.37H576.818V1019.23H579.032L620.157 1071.02V1019.23H622.925V1075.37H620.078L579.586 1024.37ZM685.906 1021.76H664.869V1075.37H662.102V1021.76H641.065V1019.23H685.906V1021.76Z" fill="white"/>
</g>
<defs>
<filter id="filter0_d_103_73" x="95.7192" y="14.6517" width="782.488" height="792.643" filterUnits="userSpaceOnUse" color-interpolation-filters="sRGB">
<feFlood flood-opacity="0" result="BackgroundImageFix"/>
<feColorMatrix in="SourceAlpha" type="matrix" values="0 0 0 0 0 0 0 0 0 0 0 0 0 0 0 0 0 0 127 0" result="hardAlpha"/>
<feOffset/>
<feGaussianBlur stdDeviation="7.5"/>
<feComposite in2="hardAlpha" operator="out"/>
<feColorMatrix type="matrix" values="0 0 0 0 0.654167 0 0 0 0 0.654167 0 0 0 0 0.654167 0 0 0 1 0"/>
<feBlend mode="normal" in2="BackgroundImageFix" result="effect1_dropShadow_103_73"/>
<feBlend mode="normal" in="SourceGraphic" in2="effect1_dropShadow_103_73" result="shape"/>
</filter>
<filter id="filter1_d_103_73" x="515.071" y="285.822" width="87.2656" height="60.9813" filterUnits="userSpaceOnUse" color-interpolation-filters="sRGB">
<feFlood flood-opacity="0" result="BackgroundImageFix"/>
<feColorMatrix in="SourceAlpha" type="matrix" values="0 0 0 0 0 0 0 0 0 0 0 0 0 0 0 0 0 0 127 0" result="hardAlpha"/>
<feOffset/>
<feGaussianBlur stdDeviation="7.5"/>
<feComposite in2="hardAlpha" operator="out"/>
<feColorMatrix type="matrix" values="0 0 0 0 0.654167 0 0 0 0 0.654167 0 0 0 0 0.654167 0 0 0 1 0"/>
<feBlend mode="normal" in2="BackgroundImageFix" result="effect1_dropShadow_103_73"/>
<feBlend mode="normal" in="SourceGraphic" in2="effect1_dropShadow_103_73" result="shape"/>
</filter>
<filter id="filter2_d_103_73" x="521.311" y="258.572" width="89.4248" height="48.3838" filterUnits="userSpaceOnUse" color-interpolation-filters="sRGB">
<feFlood flood-opacity="0" result="BackgroundImageFix"/>
<feColorMatrix in="SourceAlpha" type="matrix" values="0 0 0 0 0 0 0 0 0 0 0 0 0 0 0 0 0 0 127 0" result="hardAlpha"/>
<feOffset/>
<feGaussianBlur stdDeviation="7.5"/>
<feComposite in2="hardAlpha" operator="out"/>
<feColorMatrix type="matrix" values="0 0 0 0 0.654167 0 0 0 0 0.654167 0 0 0 0 0.654167 0 0 0 1 0"/>
<feBlend mode="normal" in2="BackgroundImageFix" result="effect1_dropShadow_103_73"/>
<feBlend mode="normal" in="SourceGraphic" in2="effect1_dropShadow_103_73" result="shape"/>
</filter>
<filter id="filter3_d_103_73" x="16.5391" y="840.078" width="918.358" height="119.825" filterUnits="userSpaceOnUse" color-interpolation-filters="sRGB">
<feFlood flood-opacity="0" result="BackgroundImageFix"/>
<feColorMatrix in="SourceAlpha" type="matrix" values="0 0 0 0 0 0 0 0 0 0 0 0 0 0 0 0 0 0 127 0" result="hardAlpha"/>
<feOffset/>
<feGaussianBlur stdDeviation="7.5"/>
<feComposite in2="hardAlpha" operator="out"/>
<feColorMatrix type="matrix" values="0 0 0 0 0.654167 0 0 0 0 0.654167 0 0 0 0 0.654167 0 0 0 1 0"/>
<feBlend mode="normal" in2="BackgroundImageFix" result="effect1_dropShadow_103_73"/>
<feBlend mode="normal" in="SourceGraphic" in2="effect1_dropShadow_103_73" result="shape"/>
</filter>
<filter id="filter4_d_103_73" x="249.382" y="1004.23" width="451.524" height="87.0105" filterUnits="userSpaceOnUse" color-interpolation-filters="sRGB">
<feFlood flood-opacity="0" result="BackgroundImageFix"/>
<feColorMatrix in="SourceAlpha" type="matrix" values="0 0 0 0 0 0 0 0 0 0 0 0 0 0 0 0 0 0 127 0" result="hardAlpha"/>
<feOffset/>
<feGaussianBlur stdDeviation="7.5"/>
<feComposite in2="hardAlpha" operator="out"/>
<feColorMatrix type="matrix" values="0 0 0 0 0.654167 0 0 0 0 0.654167 0 0 0 0 0.654167 0 0 0 1 0"/>
<feBlend mode="normal" in2="BackgroundImageFix" result="effect1_dropShadow_103_73"/>
<feBlend mode="normal" in="SourceGraphic" in2="effect1_dropShadow_103_73" result="shape"/>
</filter>
</defs>
</svg>
